<mxfile host="app.diagrams.net" modified="2022-02-25T07:37:05.374Z" agent="5.0 (Windows NT 10.0; Win64; x64) AppleWebKit/537.36 (KHTML, like Gecko) Chrome/98.0.4758.102 Safari/537.36" etag="rgmFqC6tZKrjcmzvsbmU" version="16.6.3" type="github">
  <diagram id="QJF9y5-ItRfiy5p3R6Vq" name="第 1 页">
    <mxGraphModel dx="872" dy="610" grid="1" gridSize="10" guides="1" tooltips="1" connect="1" arrows="1" fold="1" page="1" pageScale="1" pageWidth="827" pageHeight="1169" math="0" shadow="0">
      <root>
        <mxCell id="0" />
        <mxCell id="1" parent="0" />
        <mxCell id="pDsCyziouPlxu3_b3Cm0-1" value="&lt;font style=&quot;font-size: 24px&quot;&gt;草&lt;/font&gt;" style="ellipse;whiteSpace=wrap;html=1;" vertex="1" parent="1">
          <mxGeometry x="70" y="505" width="120" height="80" as="geometry" />
        </mxCell>
        <mxCell id="pDsCyziouPlxu3_b3Cm0-3" value="&lt;span style=&quot;font-size: 24px&quot;&gt;原木&lt;/span&gt;" style="ellipse;whiteSpace=wrap;html=1;" vertex="1" parent="1">
          <mxGeometry x="70" y="780" width="120" height="80" as="geometry" />
        </mxCell>
        <mxCell id="pDsCyziouPlxu3_b3Cm0-4" value="&lt;span style=&quot;font-size: 24px&quot;&gt;木棍&lt;/span&gt;" style="ellipse;whiteSpace=wrap;html=1;" vertex="1" parent="1">
          <mxGeometry x="70" y="640" width="120" height="80" as="geometry" />
        </mxCell>
        <mxCell id="pDsCyziouPlxu3_b3Cm0-5" value="&lt;span style=&quot;font-size: 24px&quot;&gt;三叶草&lt;/span&gt;" style="ellipse;whiteSpace=wrap;html=1;" vertex="1" parent="1">
          <mxGeometry x="610" y="920" width="120" height="80" as="geometry" />
        </mxCell>
        <mxCell id="pDsCyziouPlxu3_b3Cm0-6" value="&lt;span style=&quot;font-size: 24px&quot;&gt;石头&lt;/span&gt;" style="ellipse;whiteSpace=wrap;html=1;" vertex="1" parent="1">
          <mxGeometry x="60" y="910" width="120" height="80" as="geometry" />
        </mxCell>
        <mxCell id="pDsCyziouPlxu3_b3Cm0-7" value="&lt;span style=&quot;font-size: 24px&quot;&gt;刮刀&lt;/span&gt;" style="ellipse;whiteSpace=wrap;html=1;" vertex="1" parent="1">
          <mxGeometry x="470" y="800" width="120" height="80" as="geometry" />
        </mxCell>
        <mxCell id="pDsCyziouPlxu3_b3Cm0-9" value="&lt;font style=&quot;font-size: 24px&quot;&gt;细绳&lt;/font&gt;" style="ellipse;whiteSpace=wrap;html=1;" vertex="1" parent="1">
          <mxGeometry x="320" y="505" width="120" height="80" as="geometry" />
        </mxCell>
        <mxCell id="pDsCyziouPlxu3_b3Cm0-10" value="&lt;font style=&quot;font-size: 24px&quot;&gt;板条&lt;/font&gt;" style="ellipse;whiteSpace=wrap;html=1;" vertex="1" parent="1">
          <mxGeometry x="210" y="700" width="120" height="80" as="geometry" />
        </mxCell>
        <mxCell id="pDsCyziouPlxu3_b3Cm0-11" value="&lt;span style=&quot;font-size: 24px&quot;&gt;木桩&lt;/span&gt;" style="ellipse;whiteSpace=wrap;html=1;" vertex="1" parent="1">
          <mxGeometry x="340" y="700" width="120" height="80" as="geometry" />
        </mxCell>
      </root>
    </mxGraphModel>
  </diagram>
</mxfile>
